<?xml version="1.0" encoding="UTF-8" standalone="no"?>
<svg
   xmlns:dc="http://purl.org/dc/elements/1.1/"
   xmlns:cc="http://creativecommons.org/ns#"
   xmlns:rdf="http://www.w3.org/1999/02/22-rdf-syntax-ns#"
   xmlns:svg="http://www.w3.org/2000/svg"
   xmlns="http://www.w3.org/2000/svg"
   xmlns:sodipodi="http://sodipodi.sourceforge.net/DTD/sodipodi-0.dtd"
   xmlns:inkscape="http://www.inkscape.org/namespaces/inkscape"
   version="1.1"
   id="svg10"
   width="975.51599"
   height="1138.3851"
   viewBox="0 0 975.51599 1138.3852"
   sodipodi:docname="CoA of Teplice.svg"
   inkscape:version="1.0.1 (3bc2e813f5, 2020-09-07)">
  <metadata
     id="metadata16">
    <rdf:RDF>
      <cc:Work
         rdf:about="">
        <dc:format>image/svg+xml</dc:format>
        <dc:type
           rdf:resource="http://purl.org/dc/dcmitype/StillImage" />
        <dc:title />
      </cc:Work>
    </rdf:RDF>
  </metadata>
  <defs
     id="defs14" />
  <sodipodi:namedview
     pagecolor="#ffffff"
     bordercolor="#666666"
     borderopacity="1"
     objecttolerance="10"
     gridtolerance="10"
     guidetolerance="10"
     inkscape:pageopacity="0"
     inkscape:pageshadow="2"
     inkscape:window-width="1280"
     inkscape:window-height="961"
     id="namedview12"
     showgrid="false"
     fit-margin-top="0"
     fit-margin-left="0"
     fit-margin-right="0"
     fit-margin-bottom="0"
     showguides="true"
     inkscape:guide-bbox="true"
     inkscape:zoom="0.49611902"
     inkscape:cx="513.76816"
     inkscape:cy="775.12999"
     inkscape:window-x="-8"
     inkscape:window-y="-8"
     inkscape:window-maximized="1"
     inkscape:current-layer="layer1"
     inkscape:document-rotation="0" />
  <g
     inkscape:groupmode="layer"
     id="layer1"
     inkscape:label="vrstva1"
     transform="translate(-988.92432,-76.846425)">
    <g
       id="g2665"
       transform="matrix(1.3318272,0,0,1.3318272,988.92432,76.846425)"
       style="fill:#008dd2;fill-opacity:1">
      <g
         id="g19635"
         transform="matrix(3.3371499,0,0,3.8516195,1451.2917,-385.30186)"
         style="stroke:#333333;stroke-width:0.278927;stroke-opacity:0.6;fill:#008dd2;fill-opacity:1">
        <g
           id="g18159"
           style="stroke:#333333;stroke-width:0.278927;stroke-opacity:0.6;fill:#008dd2;fill-opacity:1" />
      </g>
      <text
         xml:space="preserve"
         style="font-style:normal;font-variant:normal;font-weight:normal;font-stretch:normal;font-size:35.8517px;line-height:100%;font-family:Calibri;text-align:center;writing-mode:lr-tb;text-anchor:middle;fill:#008dd2;fill-opacity:1;stroke:none;stroke-width:1px;stroke-linecap:butt;stroke-linejoin:miter;stroke-opacity:1"
         x="2341.0383"
         y="990.78259"
         id="text6536"
         transform="scale(0.93082101,1.0743204)"><tspan
           sodipodi:role="line"
           id="tspan6538"
           x="2341.0383"
           y="990.78259" /></text>
      <g
         id="layer3"
         inkscape:label="Znak"
         style="display:inline;fill:#008dd2;fill-opacity:1"
         transform="translate(-89.981933,-56.125363)">
        <path
           d="m 93.013324,59.167897 1.53757,517.823733 c 0,207.618 168.927206,330.9306 362.590086,330.9306 199.97679,0 362.32769,-131.9989 362.32779,-330.9306 l -0.72,-517.823733 z"
           id="path2959"
           style="display:inline;fill:#008dd2;fill-opacity:1;stroke:#000000;stroke-width:3.3;stroke-miterlimit:4;stroke-dasharray:none;stroke-opacity:1" />
        <path
           id="path3694"
           style="display:inline;fill:#008dd2;fill-opacity:1;stroke:#000000;stroke-width:3.3;stroke-miterlimit:4;stroke-dasharray:none;stroke-opacity:1"
           d="m 93.013324,59.167897 1.53757,517.823733 c 0,207.618 168.927206,330.9306 362.590086,330.9306 199.97679,0 362.32769,-131.9989 362.32779,-330.9306 l -0.72,-517.823733 z" />
        <path
           id="path3327"
           style="display:inline;fill:#008dd2;fill-opacity:1;stroke:#000000;stroke-width:3.3;stroke-miterlimit:4;stroke-dasharray:none;stroke-opacity:1"
           d="m 93.013324,59.1679 1.53757,517.82373 c 0,207.618 168.927206,330.9306 362.590096,330.9306 199.97679,0 362.32768,-131.9989 362.32779,-330.9306 l -0.72,-517.82373 z" />
        <g
           id="g3304"
           transform="matrix(3.3371499,0,0,3.8516195,614.95811,-256.74357)"
           style="stroke:#333333;stroke-width:0.278927;stroke-opacity:0.6;fill:#008dd2;fill-opacity:1">
          <g
             id="g3306"
             style="stroke:#333333;stroke-width:0.278927;stroke-opacity:0.6;fill:#008dd2;fill-opacity:1" />
        </g>
        <text
           xml:space="preserve"
           style="font-style:normal;font-variant:normal;font-weight:normal;font-stretch:normal;font-size:35.8517px;line-height:100%;font-family:Calibri;text-align:center;writing-mode:lr-tb;text-anchor:middle;fill:#008dd2;fill-opacity:1;stroke:none;stroke-width:1px;stroke-linecap:butt;stroke-linejoin:miter;stroke-opacity:1"
           x="1442.548"
           y="1110.4474"
           id="text3308"
           transform="scale(0.930821,1.0743204)"><tspan
             sodipodi:role="line"
             id="tspan3310"
             x="1442.548"
             y="1110.4474" /></text>
        <g
           id="g3479"
           transform="matrix(3.3371499,0,0,3.8516195,457.2758,-1321.0994)"
           style="stroke:#333333;stroke-width:0.278927;stroke-opacity:0.6;fill:#008dd2;fill-opacity:1">
          <g
             id="g3481"
             style="stroke:#333333;stroke-width:0.278927;stroke-opacity:0.6;fill:#008dd2;fill-opacity:1" />
        </g>
        <text
           xml:space="preserve"
           style="font-style:normal;font-variant:normal;font-weight:normal;font-stretch:normal;font-size:35.8517px;line-height:100%;font-family:Calibri;text-align:center;writing-mode:lr-tb;text-anchor:middle;fill:#008dd2;fill-opacity:1;stroke:none;stroke-width:1px;stroke-linecap:butt;stroke-linejoin:miter;stroke-opacity:1"
           x="1273.1467"
           y="119.72258"
           id="text3483"
           transform="scale(0.930821,1.0743204)"><tspan
             sodipodi:role="line"
             id="tspan3485"
             x="1273.1467"
             y="119.72258" /></text>
      </g>
      <g
         id="layer2-2"
         inkscape:label="Obrys"
         style="display:inline;fill:#008dd2;fill-opacity:1"
         transform="translate(-89.981933,-56.125363)">
        <path
           d="m 92.990854,59.125363 1.53757,517.823747 c 0,207.61798 168.927216,330.9306 362.590096,330.9306 199.97679,0 362.32769,-131.99891 362.32779,-330.9306 l -0.72,-517.823747 z"
           style="fill:#008dd2;fill-opacity:1;stroke:#000000;stroke-width:6;stroke-miterlimit:4;stroke-dasharray:none;stroke-opacity:1"
           id="path5010" />
      </g>
    </g>
    <path
       style="fill:#000000;fill-opacity:1;stroke-width:0.812871"
       d="m 1449.8924,1058.7069 c -52.8237,-3.3122 -105.1084,-17.1239 -153.226,-40.4769 -43.6875,-21.20286 -77.569,-45.36387 -112.2525,-80.04746 -34.6836,-34.6836 -58.8446,-68.56511 -80.0475,-112.25265 -63.2292,-130.28022 -53.4007,-285.31485 25.7552,-406.26517 65.4079,-99.94337 169.1694,-166.3039 286.8495,-183.4544 21.3695,-3.1144 30.4966,-3.6759 59.746,-3.6759 29.2494,0 38.3765,0.5615 59.7459,3.6759 101.631,14.8115 192.8438,66.0772 258.851,145.48583 63.6458,76.56778 97.5413,174.4216 94.8891,273.93736 -1.6305,61.1789 -14.9607,116.36513 -41.1353,170.29638 -21.2029,43.68754 -45.3638,77.56904 -80.0475,112.25265 -34.6836,34.68359 -68.565,58.8446 -112.2525,80.04746 -64.2265,31.1712 -134.8641,44.992 -206.8754,40.4769 z"
       id="path38-9" />
    <path
       style="fill:#fecc00;fill-opacity:1;stroke-width:0.812871"
       d="m 1437.4953,321.15909 c 4.5822,-0.012 8.333,-0.20469 8.335,-0.42823 0.022,-2.41053 -6.7811,-76.91674 -7.0489,-77.20134 -0.4314,-0.4586 -28.8078,3.047 -29.3919,3.6311 -0.3496,0.3496 11.5171,69.93811 12.5805,73.77427 0.331,1.19371 0.9431,1.32836 3.7943,0.83466 1.8698,-0.32377 7.1487,-0.59848 11.731,-0.61046 z"
       id="path214-9" />
    <path
       style="fill:#fecc00;fill-opacity:1;stroke-width:0.812871"
       d="m 1523.3592,956.44133 c 5.7231,-0.85119 10.6469,-1.7888 10.9417,-2.0837 0.2948,-0.2949 0.5323,-6.8156 0.5276,-14.4904 -0.01,-15.7269 -1.2218,-21.7652 -6.5351,-32.5504 -2.8094,-5.7028 -10.9411,-18.6524 -11.4151,-18.1784 -0.138,0.138 0.3201,3.5306 1.0181,7.539 1.7485,10.0428 1.1277,25.4883 -1.3386,33.2999 -2.6435,8.3729 -6.8313,15.8358 -12.8343,22.8712 l -5.3232,6.2389 7.2766,-0.5493 c 4.0021,-0.3022 11.9591,-1.2457 17.6823,-2.0968 z"
       id="path74-9" />
    <path
       style="fill:#fecc00;fill-opacity:1;stroke-width:0.812871"
       d="m 1575.4805,944.08663 c 12.9582,-4.28999 27.7194,-10.41859 40.8424,-16.95709 12.2442,-6.1007 29.9152,-16.1156 29.3383,-16.6273 -0.1506,-0.1336 -3.3831,-0.85401 -7.1832,-1.6009 -17.1611,-3.3729 -35.4241,-16.4049 -50.4947,-36.0314 -2.3159,-3.016 -3.9274,-4.7521 -3.5811,-3.8579 4.5825,11.8312 4.7878,12.8307 4.8429,23.5732 0.046,9.0631 -0.2246,11.4185 -1.9042,16.5464 -3.2824,10.0208 -11.2145,22.1115 -22.2789,33.9591 l -5.5414,5.9338 4.322,-1.258 c 2.3771,-0.6919 7.6142,-2.3479 11.6379,-3.67991 z"
       id="path82-1" />
    <path
       style="fill:#fecc00;fill-opacity:1;stroke-width:0.812871"
       d="m 1685.2897,880.59173 c 18.4885,-16.1998 37.0607,-37.38022 51.4945,-58.72619 27.9613,-41.35146 44.8981,-86.38689 51.8168,-137.78156 2.5618,-19.03072 1.9082,-71.63272 -1.0454,-84.1321 -0.3236,-1.36901 -1.5666,-0.46553 -7.8724,5.72182 -17.276,16.95161 -34.6749,20.04302 -54.958,9.76483 l -4.3511,-2.20488 1.8464,2.59309 c 2.5533,3.58567 10.5458,9.30793 15.6882,11.23197 7.6496,2.86206 13.7881,3.64297 24.3808,3.10158 5.4481,-0.27844 13.1062,-1.197 17.0182,-2.04124 3.9119,-0.84424 7.1126,-1.33205 7.1126,-1.08402 0,1.00513 -9.152,16.51473 -14.1892,24.04597 -12.8111,19.15436 -23.6533,29.17926 -36.7228,33.95461 -3.7358,1.365 -6.7292,1.75907 -13.8103,1.81808 l -9.0406,0.0754 4.0999,4.47079 c 13.8597,15.11368 19.2822,28.03188 19.2474,45.85399 -0.02,10.38352 -1.6066,18.54274 -6.0989,31.3687 -3.0447,8.69297 -14.4,33.53516 -18.9789,41.52036 l -2.5269,4.40683 -0.036,-3.65792 c -0.09,-9.0357 -1.6385,-25.65153 -2.8588,-30.66879 -4.2971,-17.66752 -15.3022,-30.00745 -32.4799,-36.41931 -3.1296,-1.16815 -5.3243,-1.80368 -4.8772,-1.41228 0.447,0.39141 2.9355,2.30634 5.5298,4.2554 6.1543,4.62349 14.8921,14.07352 18.35,19.84563 1.5099,2.52035 3.6977,7.04845 4.8619,10.06245 1.9552,5.06192 2.1161,6.44124 2.1094,18.0795 -0.01,12.04803 -0.1206,12.92692 -2.5982,20.08026 -6.0892,17.58146 -18.5348,36.7019 -36.6651,56.32955 l -4.8806,5.2837 0.1026,-22.7604 c 0.088,-19.53188 -0.1084,-23.62514 -1.3852,-28.8569 -2.7936,-11.44692 -6.8895,-18.09446 -14.6067,-23.70647 -4.3575,-3.16877 -5.0964,-2.88743 -2.1256,0.80931 5.8504,7.28013 7.4356,17.19446 5.3717,33.59709 -1.6416,13.04685 -1.661,24.94627 -0.051,31.12916 2.4788,9.5167 9.7435,19.8105 19.3274,27.3862 l 3.9557,3.1267 4.9342,-3.8594 c 2.7137,-2.1227 9.4238,-7.7933 14.9112,-12.6014 z"
       id="path94-7" />
    <path
       style="fill:#fecc00;fill-opacity:1;stroke-width:0.812871"
       d="m 1785.9156,589.5878 c -4.4894,-25.55559 -14.5221,-56.13858 -26.7831,-81.64382 l -4.4415,-9.23918 -4.4042,4.51111 c -6.2816,6.43398 -13.1745,9.53304 -21.2032,9.53304 -3.3369,0 -6.0672,0.11203 -6.0672,0.24894 0,0.13694 1.7016,3.11408 3.7814,6.61587 4.9947,8.40982 8.0818,15.25658 13.7058,30.39769 5.8895,15.8559 8.5761,20.95537 13.8138,26.2199 5.6521,5.68106 11.7706,9.16556 22.6125,12.87784 4.9962,1.71071 9.1663,3.11264 9.2669,3.1154 0.1005,0.002 -0.026,-1.18379 -0.2812,-2.63679 z"
       id="path142-4" />
    <path
       style="fill:#fecc00;fill-opacity:1;stroke-width:0.812871"
       d="m 1470.2804,326.42097 h 3.9978 v -42.37874 -42.3788 l -14.6352,0.38409 c -8.0494,0.21121 -14.8673,0.616 -15.1509,0.89961 -0.2836,0.28359 1.0041,17.99239 2.8615,39.35289 1.8573,21.3605 3.3713,39.11163 3.3642,39.44694 -0.01,0.3353 0.4444,0.62031 1.0033,0.63335 0.5588,0.013 3.5766,1.08825 6.7062,2.38938 3.1295,1.30112 6.1772,2.20494 6.7726,2.00848 0.5954,-0.19647 2.8816,-0.3572 5.0805,-0.3572 z"
       id="path210-9" />
    <path
       style="fill:#fecc00;fill-opacity:1;stroke-width:0.812871"
       d="m 1743.6291,479.85027 c -7.7679,-12.37779 -18.9118,-27.60214 -27.8165,-38.0017 -6.7144,-7.84153 -23.2787,-24.69558 -30.5946,-31.12959 l -5.6901,-5.0042 6.9363,7.29636 c 8.2117,8.63803 15.8802,18.43191 27.0345,34.52752 14.2683,20.58888 21.1962,28.76147 28.5304,33.65622 1.7389,1.16055 3.2981,2.11009 3.4649,2.11009 0.1667,0 -0.6725,-1.55462 -1.8649,-3.4547 z"
       id="path166-8" />
    <path
       style="fill:#fecc00;fill-opacity:1;stroke-width:0.812871"
       d="m 1480.3748,334.54966 3.175,-3.25148 h -6.8329 -6.833 l 3.175,3.25148 c 1.7463,1.78832 3.3923,3.25149 3.658,3.25149 0.2656,0 1.9116,-1.46317 3.6579,-3.25149 z"
       id="path204-9" />
    <path
       style="fill:#fecc00;fill-opacity:1;stroke-width:0.812871"
       d="m 1297.892,888.20583 c 13.9618,-14.133 16.7868,-25.3219 13.3299,-52.7953 -2.0639,-16.40265 -0.4787,-26.31698 5.3718,-33.59711 2.9707,-3.69674 2.2318,-3.97808 -2.1257,-0.8093 -7.7172,5.61201 -11.8131,12.25955 -14.6067,23.70646 -1.2768,5.23176 -1.4733,9.32502 -1.3852,28.85691 l 0.1026,22.76034 -4.8806,-5.2836 c -18.1303,-19.6277 -30.5759,-38.74813 -36.6651,-56.3296 -2.4775,-7.15334 -2.5913,-8.03223 -2.5982,-20.08026 -0.01,-11.63825 0.1542,-13.01757 2.1094,-18.0795 1.1642,-3.014 3.3521,-7.5421 4.8619,-10.06244 3.4579,-5.77211 12.1958,-15.22214 18.35,-19.84562 2.5943,-1.94907 5.0828,-3.864 5.5299,-4.25541 1.6474,-1.4423 -10.7123,3.62155 -14.9994,6.1453 -2.4376,1.43501 -6.7384,4.92263 -9.5574,7.75026 -5.8012,5.81911 -10.5569,14.71208 -12.8004,23.93603 -1.2233,5.02981 -2.7767,21.72019 -2.8543,30.66879 l -0.032,3.65792 -1.7556,-2.84505 c -3.5285,-5.71817 -16.8612,-34.78112 -19.7641,-43.08213 -4.541,-12.9854 -6.074,-20.96426 -6.0942,-31.71829 -0.033,-17.57907 5.3846,-30.38739 19.2475,-45.50441 l 4.0998,-4.47079 -9.0406,-0.0754 c -7.081,-0.059 -10.0745,-0.45309 -13.8103,-1.81808 -13.0695,-4.77534 -23.9117,-14.80025 -36.7227,-33.95461 -5.0415,-7.53761 -14.1892,-23.04113 -14.1892,-24.04773 0,-0.24899 3.2007,0.20189 7.1126,1.00196 22.2265,4.54576 37.0707,3.88699 48.1374,-2.13626 3.9155,-2.13108 14.4072,-12.24236 13.5708,-13.07874 -0.2064,-0.20641 -2.6968,0.79664 -5.5343,2.22899 -23.3316,11.77775 -42.2692,7.90073 -59.7528,-12.23294 -3.7742,-4.34623 -4.2314,-4.64613 -4.6209,-3.03106 -2.9951,12.42059 -3.6784,65.09644 -1.0934,84.29877 11.2999,83.94104 51.7666,155.9895 116.7938,207.9436 5.1597,4.1224 6.3448,4.74 7.7223,4.0243 0.8949,-0.46489 4.7393,-3.9957 8.5431,-7.8461 z"
       id="path92-0" />
    <path
       style="fill:#fecc00;fill-opacity:1;stroke-width:0.812871"
       d="m 1181.6451,587.28602 c 11.0308,-4.24159 19.0118,-10.84079 23.9222,-19.78031 1.4942,-2.72023 4.8108,-10.59265 7.3702,-17.49427 5.6082,-15.12279 8.6963,-21.97556 13.6983,-30.39769 2.0798,-3.50179 3.7814,-6.47893 3.7814,-6.61586 0,-0.13691 -2.7302,-0.24894 -6.0672,-0.24894 -8.0287,0 -14.9216,-3.09907 -21.2032,-9.53304 l -4.4042,-4.51111 -4.4415,9.23918 c -12.2489,25.48028 -22.3195,56.17111 -26.7723,81.59082 l -0.4535,2.58882 4.2366,-1.24668 c 2.3302,-0.68566 6.9801,-2.30158 10.3332,-3.59092 z"
       id="path140-3" />
    <path
       style="fill:#fecc00;fill-opacity:1;stroke-width:0.812871"
       d="m 1216.9749,476.68792 c 5.464,-4.9938 11.7547,-12.98025 22.96,-29.14926 11.1509,-16.09051 18.8208,-25.88687 27.0346,-34.52978 l 6.9363,-7.29862 -6.503,5.81879 c -21.9917,19.67802 -41.8702,43.26052 -57.6228,68.36004 l -2.1926,3.49351 2.3751,-1.22818 c 1.3063,-0.6755 4.4619,-3.13543 7.0124,-5.4665 z"
       id="path164-7" />
    <path
       style="fill:#fecc00;fill-opacity:1;stroke-width:0.812871"
       d="m 1388.3974,943.11843 c -11.0911,-11.8763 -19.0193,-23.9569 -22.3046,-33.9868 -1.6797,-5.1279 -1.9508,-7.4833 -1.9043,-16.5464 0.055,-10.74249 0.2604,-11.74199 4.8429,-23.5732 0.3463,-0.89419 -1.2652,0.8419 -3.5811,3.8579 -15.0704,19.6265 -33.3335,32.6585 -50.4946,36.0314 -3.8001,0.7469 -7.0326,1.4673 -7.1832,1.6009 -1.0761,0.9544 31.1836,18.1224 45.3881,24.1547 12.1603,5.16421 36.126,13.66741 40.5205,14.37711 0.156,0.025 -2.2217,-2.6369 -5.2837,-5.91561 z"
       id="path80-7" />
    <path
       style="fill:#fecc00;fill-opacity:1;stroke-width:0.812871"
       d="m 1451.857,957.41174 c 1.1468,-3.6354 2.1261,-18.4457 1.6797,-25.4022 -0.6352,-9.8972 -3.3163,-26.3815 -5.4093,-33.25761 -1.5181,-4.9873 -6.9638,-15.57479 -7.9554,-15.46659 -0.81,0.088 -12.2472,18.3793 -15.05,24.0687 -1.5215,3.0885 -3.5418,8.3448 -4.4894,11.6807 -1.9566,6.8877 -2.989,21.8323 -2.0889,30.2373 0.6766,6.3182 -0.739,5.6395 16.5415,7.9298 14.7046,1.9488 16.2174,1.9677 16.7718,0.2099 z"
       id="path72-2" />
    <path
       style="fill:#fecc00;fill-opacity:1;stroke-width:0.812871"
       d="m 1531.4639,320.93408 c 1.0634,-3.83621 12.9297,-73.42386 12.5802,-73.77346 -0.5841,-0.5841 -28.9604,-4.08969 -29.3918,-3.6311 -0.2745,0.29171 -7.0647,74.76011 -7.0494,77.31096 0,0.28382 2.2892,0.34967 5.0835,0.1463 2.7942,-0.20336 7.641,-0.0246 10.7705,0.39722 3.1296,0.42183 6.1227,0.81322 6.6514,0.86978 0.5287,0.0566 1.1388,-0.53731 1.3556,-1.3197 z"
       id="path216-6" />
    <path
       style="fill:#fecc00;fill-opacity:1;stroke-width:0.812871"
       d="m 1494.8772,324.79523 c 3.3496,-1.34125 6.4865,-2.43862 6.9708,-2.43862 0.4844,0 0.8749,-0.27435 0.8679,-0.60965 -0.01,-0.33531 1.5069,-18.08644 3.3643,-39.44694 1.8573,-21.3605 3.145,-39.06929 2.8614,-39.35289 -0.2836,-0.2836 -7.1015,-0.6884 -15.1509,-0.89961 l -14.6352,-0.38409 v 42.33819 42.33821 l 4.674,0.29329 c 2.5707,0.16132 4.7378,0.36247 4.8158,0.44702 0.078,0.0845 2.8823,-0.94369 6.2319,-2.28491 z"
       id="path212-8" />
    <path
       style="fill:#fecc00;fill-opacity:1;stroke-width:0.812871"
       d="m 1569.3422,290.66453 c 5.3242,-19.88961 9.615,-36.21941 9.5351,-36.28841 -0.4727,-0.4081 -26.628,-5.9907 -28.0672,-5.9907 -0.9614,0 -1.7513,0.2743 -1.7556,0.6096 0,0.33531 -2.9173,17.0352 -6.4735,37.11091 -3.5562,20.0757 -6.2746,36.81065 -6.0408,37.18882 0.2337,0.37818 1.2264,0.71087 2.2059,0.73929 0.9795,0.0284 5.8047,1.262 10.7226,2.74126 7.9886,2.40294 9.0082,2.54903 9.5673,1.37084 0.3442,-0.72531 4.982,-17.59205 10.3062,-37.48161 z"
       id="path208-8" />
    <path
       style="fill:#fecc00;fill-opacity:1;stroke-width:0.812871"
       d="m 1409.8618,325.20573 c 3.6903,-0.97477 6.8804,-1.94304 7.0891,-2.15175 0.2087,-0.20868 -2.5329,-16.82015 -6.0923,-36.91435 -3.5595,-20.0942 -6.4753,-36.8093 -6.4795,-37.1446 0,-0.3353 -0.7942,-0.6096 -1.7555,-0.6096 -1.4393,0 -27.5946,5.5826 -28.0673,5.9907 -0.1375,0.1187 18.575,70.27016 19.6352,73.61074 0.481,1.51549 0.6619,1.52634 4.7304,0.28347 2.3266,-0.71075 7.2495,-2.08983 10.9399,-3.06461 z"
       id="path206-6" />
    <path
       style="fill:#fecc00;fill-opacity:1;stroke-width:0.812871"
       d="m 1599.1188,302.43642 c 7.0049,-19.22169 12.9104,-35.56629 13.1235,-36.32129 0.3211,-1.13791 -1.8175,-2.06731 -12.4971,-5.43151 -7.0865,-2.2322 -13.6161,-4.25869 -14.5102,-4.5031 -1.5114,-0.41319 -2.2996,2.08481 -11.204,35.50761 -5.268,19.77368 -9.7809,36.73405 -10.0286,37.68972 -0.4125,1.59144 0.4615,2.04438 10.3911,5.38526 5.9628,2.00623 11.0997,3.41691 11.4153,3.13485 0.3156,-0.28209 6.3051,-16.23975 13.31,-35.46154 z"
       id="path202-0" />
    <path
       style="fill:#fecc00;fill-opacity:1;stroke-width:0.812871"
       d="m 1379.4466,334.57819 c 9.5537,-3.16956 10.3971,-3.60879 9.9847,-5.19995 -0.2478,-0.95589 -4.7607,-17.91643 -10.0287,-37.69011 -8.9044,-33.42281 -9.6926,-35.92081 -11.2039,-35.50761 -11.8402,3.23721 -27.2923,8.7206 -27.0798,9.60951 1.2462,5.21199 26.4601,72.74614 27.0798,72.53159 0.447,-0.15479 5.5086,-1.83932 11.2479,-3.74343 z"
       id="path200-4" />
    <path
       style="fill:#fecc00;fill-opacity:1;stroke-width:0.812871"
       d="m 1629.4882,312.30903 c 8.521,-18.26791 15.4927,-33.49031 15.4927,-33.82751 0,-1.0402 -27.2585,-12.1397 -27.8807,-11.3528 -0.6477,0.8192 -26.4714,72.67929 -26.2115,72.93925 0.8051,0.80502 22.0665,6.46224 22.5453,5.99882 0.3087,-0.29886 7.5331,-15.48984 16.0542,-33.75776 z"
       id="path198-4" />
    <path
       style="fill:#fecc00;fill-opacity:1;stroke-width:0.812871"
       d="m 1357.4789,341.72212 c 4.4603,-1.34635 5.4357,-1.92982 5.0146,-2.99946 -0.2876,-0.73036 -6.2261,-17.057 -13.1969,-36.28134 -6.9708,-19.2244 -12.8031,-35.11509 -12.9606,-35.31259 -0.6253,-0.7839 -27.8832,10.3107 -27.8832,11.34899 0,0.5431 29.0582,63.21824 30.9417,66.73756 0.8242,1.54003 2.4503,1.22593 18.0844,-3.49316 z"
       id="path196-5" />
    <path
       style="fill:#fecc00;fill-opacity:1;stroke-width:0.812871"
       d="m 1660.5447,322.44155 c 8.8949,-15.37752 16.0734,-28.05773 15.9522,-28.17832 -0.9201,-0.9149 -23.4174,-12.55081 -25.013,-12.937 -1.973,-0.47751 -2.4852,0.47939 -17.5951,32.87457 -14.8323,31.80016 -15.4775,33.38784 -13.7442,33.82288 6.0733,1.52429 14.5675,2.64968 19.0451,2.52328 l 5.1824,-0.14632 z"
       id="path194-5" />
    <path
       style="fill:#fecc00;fill-opacity:1;stroke-width:0.812871"
       d="m 1325.583,349.50999 c 4.2143,-0.71339 7.9958,-1.61385 8.4034,-2.00099 0.4378,-0.41586 -5.5498,-14.20303 -14.6317,-33.69139 -14.927,-32.03098 -15.4316,-32.97319 -17.4049,-32.49349 -1.5949,0.3876 -24.0951,12.0264 -25.0116,12.93771 -0.1799,0.179 14.4822,25.81683 29.1999,51.05837 l 3.1993,5.48688 h 4.2916 c 2.3605,0 7.7398,-0.5837 11.954,-1.29709 z"
       id="path192-5" />
    <path
       style="fill:#fecc00;fill-opacity:1;stroke-width:0.812871"
       d="m 1690.5106,336.20577 c 11.3517,-16.22806 15.4168,-22.63886 14.8874,-23.47815 -0.4006,-0.63498 -5.9663,-4.43809 -12.3682,-8.45129 -9.6501,-6.0494 -11.813,-7.1079 -12.6523,-6.1917 -1.2756,1.39269 -30.5193,52.23119 -30.5193,53.05617 0,0.79589 9.1155,-0.0536 18.1153,-1.68818 3.9279,-0.71342 7.3408,-1.09798 7.5841,-0.85464 0.2434,0.24338 -0.1355,2.69848 -0.8418,5.4558 -1.4899,5.81554 -1.5398,6.2896 -0.5526,5.2478 0.4024,-0.42474 7.7588,-10.81784 16.3474,-23.09581 z"
       id="path190-3" />
    <path
       style="fill:#fecc00;fill-opacity:1;stroke-width:0.812871"
       d="m 1278.7322,354.10937 c -0.7142,-2.78791 -1.0995,-5.26801 -0.8561,-5.51139 0.2434,-0.24334 3.6562,0.14122 7.5841,0.85463 9.01,1.63644 18.1154,2.48381 18.1154,1.68586 0,-0.81636 -29.246,-51.64225 -30.528,-53.05385 -0.8308,-0.9147 -3.0091,0.152 -12.6437,6.1917 -6.4019,4.0132 -11.9666,7.81475 -12.366,8.44785 -0.5267,0.83499 3.6858,7.45151 15.3407,24.09528 8.8367,12.61931 16.1985,22.81249 16.3595,22.65151 0.161,-0.16099 -0.2917,-2.57371 -1.0059,-5.36159 z"
       id="path188-9" />
    <path
       style="fill:#fecc00;fill-opacity:1;stroke-width:0.812871"
       d="m 1660.4255,391.08321 c 0,-0.85235 -7.4785,-5.42727 -7.9826,-4.88333 -0.3039,0.32785 -0.1868,0.73088 0.2603,0.89564 0.4471,0.16476 2.276,1.20065 4.0644,2.30196 3.5261,2.17154 3.6579,2.23226 3.6579,1.68573 z"
       id="path186-1" />
    <path
       style="fill:#fecc00;fill-opacity:1;stroke-width:0.812871"
       d="m 1707.1655,367.39769 c 14.7535,-17.65222 26.8246,-32.39394 26.8246,-32.7594 0,-0.84887 -2.6915,-3.09173 -14.1388,-11.78188 l -9.2616,-7.0309 -1.2792,1.84303 c -0.7035,1.01365 -11.6246,16.58358 -24.2692,34.59981 -12.6445,18.01624 -22.9688,33.01371 -22.9428,33.32769 0.048,0.58426 17.1005,13.85647 17.8359,13.8823 0.2235,0.008 12.4775,-14.42845 27.2311,-32.08065 z"
       id="path182-0" />
    <path
       style="fill:#fecc00;fill-opacity:1;stroke-width:0.812871"
       d="m 1301.0692,386.83514 c 0.1863,-0.14395 0.1205,-0.47991 -0.1461,-0.74655 -0.4776,-0.47764 -7.9149,4.24777 -7.9149,5.02889 0,0.32138 6.731,-3.25439 8.061,-4.28234 z"
       id="path184-5" />
    <path
       style="fill:#fecc00;fill-opacity:1;stroke-width:0.812871"
       d="m 1282.6692,392.66991 c 5.1913,-3.90954 8.4886,-6.9346 8.2678,-7.58531 -0.2553,-0.75257 -45.6203,-66.12088 -47.9157,-69.04377 -0.18,-0.22925 -16.9102,12.34638 -21.1392,15.88976 -1.3413,1.12378 -2.4386,2.34226 -2.4386,2.70771 0,0.90438 53.5282,64.88806 54.12,64.69114 0.2588,-0.0861 4.3564,-3.0829 9.1057,-6.65953 z"
       id="path180-2" />
    <path
       style="fill:#fecc00;fill-opacity:1;stroke-width:0.812871"
       d="m 1760.4084,357.95763 c 0,-0.78211 -21.0531,-19.75005 -21.9212,-19.75005 -0.9244,0 -54.5726,63.97439 -54.2983,64.74964 0.1189,0.33618 3.8742,3.9107 8.345,7.94337 l 8.1287,7.33216 29.8728,-29.84758 c 16.4302,-16.41617 29.873,-30.10856 29.873,-30.42754 z"
       id="path178-3" />
    <path
       style="fill:#fecc00;fill-opacity:1;stroke-width:0.812871"
       d="m 1752.3509,411.25565 32.5488,-27.34143 -2.3353,-2.53156 c -1.2843,-1.39236 -5.9469,-6.48692 -10.3612,-11.32125 l -8.026,-8.78969 -29.9294,29.92123 c -16.4612,16.45669 -29.8375,30.17567 -29.7251,30.48664 0.2375,0.65761 14.6989,16.91751 15.0463,16.91751 0.1281,0 14.88,-12.30365 32.7819,-27.34145 z"
       id="path174-5" />
    <path
       style="fill:#fecc00;fill-opacity:1;stroke-width:0.812871"
       d="m 1264.0785,408.01477 c 5.0946,-4.63405 5.5107,-5.2448 4.4708,-6.56312 -1.3886,-1.76059 -51.8731,-62.12281 -52.833,-63.17021 -0.646,-0.70498 -7.0464,4.61701 -18.1878,15.12342 l -4.9098,4.62996 30.0239,30.072 30.0238,30.072 2.8974,-2.52726 c 1.5936,-1.38999 5.4252,-4.82655 8.5147,-7.63679 z"
       id="path176-7" />
    <path
       style="fill:#fecc00;fill-opacity:1;stroke-width:0.812871"
       d="m 1770.8389,436.86811 c 18.629,-13.02207 34.2144,-23.99172 34.6341,-24.37701 0.4619,-0.42394 -0.3405,-2.27812 -2.0322,-4.69615 -4.636,-6.62679 -14.9455,-19.5545 -15.6111,-19.57584 -0.5372,-0.0172 -59.3481,48.92651 -63.4724,52.82321 -1.4534,1.37319 -1.2751,1.72554 5.2836,10.4406 3.7333,4.9607 6.9092,9.02896 7.0575,9.04056 0.1482,0.0116 15.5115,-10.63329 34.1405,-23.65537 z"
       id="path170-8" />
    <path
       style="fill:#fecc00;fill-opacity:1;stroke-width:0.812871"
       d="m 1241.4023,430.42104 c 4.0175,-4.49682 7.3964,-8.43047 7.5087,-8.74145 0.1124,-0.31097 -13.277,-14.04296 -29.754,-30.51553 l -29.9584,-29.95013 -9.854,10.85077 c -5.4198,5.96791 -9.9542,11.17127 -10.0766,11.56298 -0.1938,0.62059 63.3152,54.76333 64.412,54.91257 0.2297,0.0313 3.7048,-3.62238 7.7223,-8.11921 z"
       id="path172-7" />
    <path
       style="fill:#fecc00;fill-opacity:1;stroke-width:0.812871"
       d="m 1788.4525,462.95353 c 19.6714,-11.31213 36.0784,-20.836 36.46,-21.16415 0.6448,-0.55464 -10.873,-19.52887 -14.5125,-23.90755 l -1.6258,-1.95591 -34.7025,24.35328 -34.7025,24.35328 6.2521,9.66158 c 3.4386,5.31387 6.4349,9.5638 6.6584,9.44428 0.2236,-0.11952 16.5013,-9.47268 36.1728,-20.78481 z"
       id="path162-3" />
    <path
       style="fill:#fecc00;fill-opacity:1;stroke-width:0.812871"
       d="m 1223.885,451.30907 c 6.4992,-8.54908 6.6641,-8.87439 5.1996,-10.2585 -3.3219,-3.13954 -62.8898,-52.85145 -63.3299,-52.85145 -1.1887,0 -18.4568,22.55726 -18.089,23.62958 0.3099,0.90325 68.3526,48.69042 69.0168,48.47128 0.2698,-0.089 3.5109,-4.13491 7.2025,-8.99091 z"
       id="path168-9" />
    <path
       style="fill:#fecc00;fill-opacity:1;stroke-width:0.812871"
       d="m 1802.8398,490.96486 c 20.7,-9.6465 37.9534,-17.84637 38.341,-18.22193 0.3923,-0.38025 -2.2953,-6.48551 -6.0649,-13.77757 -4.9673,-9.60874 -7.0852,-12.97355 -7.9557,-12.63952 -1.3989,0.53681 -65.5925,37.51129 -67.9711,39.15021 -1.6068,1.10721 -1.6046,1.12578 0.1942,1.59918 l 1.8199,0.47897 -1.8879,3.16583 -1.8878,3.16584 3.7258,7.30361 c 2.0493,4.01699 3.7989,7.30606 3.888,7.30905 0.089,0.003 17.0985,-7.88716 37.7985,-17.53367 z"
       id="path158-2" />
    <path
       style="fill:#fecc00;fill-opacity:1;stroke-width:0.812871"
       d="m 1213.3786,464.39049 c -0.3024,-0.34368 -15.888,-11.38869 -34.6344,-24.54446 l -34.0847,-23.91958 -1.6258,1.95565 c -2.7005,3.24859 -15.2134,23.24923 -14.8024,23.66025 0.2105,0.2105 16.7814,9.84971 36.8241,21.42047 l 36.4413,21.03776 6.2159,-9.49259 c 3.4187,-5.22094 5.9684,-9.7738 5.666,-10.1175 z"
       id="path160-6" />
    <path
       style="fill:#fecc00;fill-opacity:1;stroke-width:0.812871"
       d="m 1192.2803,501.18948 3.7259,-7.30361 -1.8879,-3.16584 -1.8879,-3.16583 1.8199,-0.47897 c 1.7988,-0.4734 1.801,-0.49197 0.1942,-1.59918 -2.3785,-1.63892 -66.5721,-38.6134 -67.971,-39.15021 -0.8705,-0.33403 -2.9884,3.03078 -7.9557,12.63952 -3.7701,7.29286 -6.4572,13.39736 -6.0648,13.77775 0.6509,0.63104 74.9844,35.60025 75.895,35.70377 0.2235,0.0254 2.083,-3.24041 4.1323,-7.2574 z"
       id="path156-3" />
    <path
       style="fill:#fecc00;fill-opacity:1;stroke-width:0.812871"
       d="m 1815.6836,519.76904 c 21.2363,-7.68205 38.8938,-14.20877 39.239,-14.50382 0.723,-0.618 -1.6858,-7.28495 -7.0894,-19.62061 l -3.7821,-8.6341 -38.3666,17.89074 c -21.1017,9.83991 -38.4413,17.9455 -38.5324,18.01241 -0.5028,0.36898 8.4287,20.75173 9.1073,20.78405 0.4471,0.0213 18.188,-6.24661 39.4242,-13.92867 z"
       id="path154-6" />
    <path
       style="fill:#fecc00;fill-opacity:1;stroke-width:0.812871"
       d="m 1825.2949,549.78361 c 23.5906,-6.31114 40.3276,-11.17962 40.5656,-11.79971 0.5516,-1.43748 -7.9915,-27.85422 -9.008,-27.85422 -0.7482,0 -78.6506,28.26921 -79.0768,28.69538 -0.3142,0.3142 6.5596,21.70259 6.9748,21.70259 0.2111,0 18.4561,-4.83481 40.5444,-10.74404 z"
       id="path150-2" />
    <path
       style="fill:#fecc00;fill-opacity:1;stroke-width:0.812871"
       d="m 1182.2173,523.34715 c 2.3265,-5.6715 4.1555,-10.36658 4.0643,-10.43349 -0.091,-0.0669 -17.4694,-8.19055 -38.6183,-18.05255 -36.9097,-17.21141 -38.4804,-17.86008 -39.1439,-16.16605 -0.3802,0.97069 -2.0378,4.8741 -3.6835,8.67426 -4.4031,10.16724 -6.9972,17.26047 -6.4959,17.76178 0.7124,0.7124 77.0881,28.46435 78.4279,28.49762 0.8073,0.0201 2.6484,-3.45349 5.4494,-10.28157 z"
       id="path152-2" />
    <path
       style="fill:#fecc00;fill-opacity:1;stroke-width:0.812871"
       d="m 1172.4576,549.7714 c 1.8648,-5.91595 3.3049,-10.84179 3.2004,-10.94632 -0.4262,-0.42618 -78.3286,-28.69538 -79.0768,-28.69538 -0.9835,0 -9.5387,26.29996 -9.0423,27.79734 0.2109,0.63622 16.2393,5.34089 40.1161,11.77496 21.8707,5.89347 40.1355,10.74021 40.5885,10.77054 0.453,0.0303 2.3494,-4.78518 4.2141,-10.70114 z"
       id="path148-1" />
    <path
       style="fill:#fecc00;fill-opacity:1;stroke-width:0.812871"
       d="m 1875.2734,712.242 c 0.633,-1.64957 4.036,-28.20716 3.6622,-28.5809 -0.1772,-0.17717 -19.1254,-1.98056 -42.1072,-4.00752 -32.7891,-2.89196 -41.9231,-3.46802 -42.4262,-2.67575 -0.3526,0.55529 -0.6533,2.107 -0.6682,3.44824 -0.015,1.34123 -0.5536,5.89866 -1.1973,10.12762 -0.6436,4.22896 -1.0333,7.82589 -0.8661,7.99318 0.3249,0.3249 79.5944,14.58061 81.8431,14.71854 0.7346,0.045 1.5264,-0.41548 1.7597,-1.02341 z"
       id="path126-9" />
    <path
       style="fill:#fecc00;fill-opacity:1;stroke-width:0.812871"
       d="m 1120.5481,706.08732 c 22.505,-3.98401 41.0534,-7.37888 41.2187,-7.54413 0.1652,-0.16527 -0.2262,-3.76054 -0.8698,-7.9895 -0.6436,-4.22896 -1.1824,-8.78639 -1.1973,-10.12762 -0.015,-1.34124 -0.3156,-2.8931 -0.6684,-3.44857 -0.5034,-0.79275 -9.5437,-0.22456 -42.0337,2.64182 -22.7658,2.0085 -41.7178,3.65179 -42.1156,3.65179 -0.7608,0 -0.4539,3.56417 1.5745,18.28959 1.3545,9.8328 1.7897,11.79065 2.6185,11.77845 0.3052,-0.005 18.968,-3.26781 41.4731,-7.25183 z"
       id="path124-7" />
    <path
       style="fill:#fecc00;fill-opacity:1;stroke-width:0.812871"
       d="m 1868.0012,746.85724 c 0.7395,-1.19658 6.4357,-27.86414 6.0369,-28.2629 -0.2198,-0.21984 -18.9985,-3.68153 -41.7303,-7.69262 -42.8791,-7.56614 -42.5914,-7.54016 -42.6236,-3.84745 -0.01,0.78607 -0.9324,5.32253 -2.0567,10.08103 -1.1244,4.7585 -1.9474,8.73114 -1.829,8.8281 0.505,0.4134 79.1911,21.4106 80.4384,21.46479 0.7559,0.0328 1.5499,-0.22409 1.7643,-0.57095 z"
       id="path122-9" />
    <path
       style="fill:#fecc00;fill-opacity:1;stroke-width:0.812871"
       d="m 1861.4594,769.6386 c 2.08,-6.59441 4.0046,-13.11794 4.2767,-14.49676 l 0.4947,-2.50694 -15.7223,-4.22631 c -72.1996,-19.40792 -66.0667,-17.93161 -66.6688,-16.04845 -4.2692,13.35317 -6.363,20.26057 -6.1793,20.38472 0.4275,0.2889 79.0749,28.81016 79.5451,28.84681 0.2595,0.0202 2.1737,-5.35865 4.2539,-11.95307 z"
       id="path112-3" />
    <path
       style="fill:#fecc00;fill-opacity:1;stroke-width:0.812871"
       d="m 1127.5376,736.8135 c 21.9353,-5.87092 39.9792,-10.7536 40.0976,-10.8504 0.1184,-0.0968 -0.7046,-4.06931 -1.829,-8.82781 -1.1243,-4.7585 -2.0499,-9.29496 -2.0567,-10.08103 -0.032,-3.69271 0.2556,-3.71869 -42.6236,3.84745 -22.7319,4.01109 -41.5105,7.47278 -41.7304,7.69262 -0.3987,0.39876 5.2975,27.06632 6.0371,28.2629 0.2143,0.34686 0.8022,0.63065 1.3063,0.63065 0.5041,0 18.8635,-4.80347 40.7987,-10.67438 z"
       id="path120-6" />
    <path
       style="fill:#fecc00;fill-opacity:1;stroke-width:0.812871"
       d="m 1135.909,767.26256 c 21.8017,-7.90125 39.7407,-14.43423 39.8643,-14.51775 0.1838,-0.12411 -1.9102,-7.03163 -6.1793,-20.38467 -0.602,-1.88316 5.5308,-3.35947 -66.6688,16.04845 l -15.7223,4.22631 0.4947,2.50694 c 0.6055,3.0679 7.9576,26.48661 8.3152,26.48661 0.1411,0 18.0944,-6.46465 39.8962,-14.36589 z"
       id="path110-2" />
    <path
       style="fill:#fecc00;fill-opacity:1;stroke-width:0.812871"
       d="m 1846.5534,808.90282 c 3.6667,-8.1725 9.2331,-22.40251 8.8763,-22.69148 -0.6537,-0.5294 -77.5842,-28.36377 -78.6635,-28.46138 -0.7018,-0.0635 -2.7292,3.77956 -5.4384,10.30888 l -4.3194,10.41007 9.0724,4.2216 c 4.9898,2.32188 22.0687,10.32104 37.9532,17.77591 15.8845,7.45487 29.1704,13.58188 29.5244,13.61558 0.354,0.0337 1.7018,-2.29693 2.995,-5.17918 z"
       id="path108-4" />
    <path
       style="fill:#fecc00;fill-opacity:1;stroke-width:0.812871"
       d="m 1142.3303,799.01026 c 17.823,-8.32315 35.0391,-16.34141 38.258,-17.81835 l 5.8526,-2.68534 -4.3272,-10.4289 c -2.7145,-6.54201 -4.7443,-10.39119 -5.4462,-10.32772 -1.0793,0.0976 -78.0099,27.93198 -78.6635,28.46138 -0.6134,0.49681 10.755,27.93195 11.5743,27.93195 0.1907,0 14.9291,-6.80986 32.752,-15.13302 z"
       id="path104-2" />
    <path
       style="fill:#fecc00;fill-opacity:1;stroke-width:0.812871"
       d="m 1836.0316,830.85072 c 3.3387,-6.42554 5.8874,-11.85835 5.6639,-12.0729 -0.7023,-0.67395 -75.7477,-35.52363 -76.4968,-35.52363 -0.8354,0 -10.0632,17.77071 -10.0696,19.39168 0,0.60615 16.2734,10.51963 36.1684,22.02994 34.5816,20.00733 36.2275,20.86033 37.4182,19.39278 0.6851,-0.84428 3.9772,-6.79233 7.3159,-13.21787 z"
       id="path102-4" />
    <path
       style="fill:#fecc00;fill-opacity:1;stroke-width:0.812871"
       d="m 1815.7518,865.54974 c 3.3907,-5.249 6.9746,-10.8954 7.9644,-12.54764 l 1.7997,-3.00401 -1.8679,-1.17141 c -11.9221,-7.47672 -71.7139,-41.14874 -72.1689,-40.64228 -0.3335,0.37136 -3.1521,4.72003 -6.2634,9.66372 l -5.6568,8.98851 34.2012,24.08404 c 18.8107,13.24626 34.567,24.10396 35.0141,24.12836 0.4471,0.024 3.5871,-4.25019 6.9776,-9.49929 z"
       id="path98-4" />
    <path
       style="fill:#fecc00;fill-opacity:1;stroke-width:0.812871"
       d="m 1163.3555,823.89694 c 18.7773,-10.81673 34.4563,-19.96519 34.8423,-20.32991 0.7678,-0.72548 -8.2954,-19.4395 -9.6929,-20.01417 -0.7122,-0.29287 -75.4877,34.0107 -76.763,35.21533 -0.4013,0.37902 6.753,14.68773 11.4074,22.81525 2.3337,4.07519 2.5311,4.2202 4.2564,3.12682 0.9951,-0.6306 17.1725,-9.9966 35.9498,-20.81332 z"
       id="path100-3" />
    <path
       style="fill:#fecc00;fill-opacity:1;stroke-width:0.812871"
       d="m 1179.7944,850.77201 34.0837,-23.93011 -5.6586,-8.99115 c -3.1122,-4.94512 -5.9314,-9.29498 -6.265,-9.66634 -0.455,-0.50647 -60.2467,33.16556 -72.1688,40.64227 l -1.868,1.17141 1.7997,3.00401 c 6.211,10.36714 14.2693,22.09044 15.0612,21.91104 0.5126,-0.116 16.2697,-10.9796 35.0158,-24.14113 z"
       id="path96-6" />
    <path
       style="fill:#fecc00;fill-opacity:1;stroke-width:0.812871"
       d="m 1799.2964,889.12513 c 3.4245,-4.5856 6.2263,-8.76289 6.2263,-9.28279 0,-0.9144 -67.4568,-48.62878 -68.7495,-48.62878 -0.3521,0 -1.4744,1.18881 -2.494,2.64183 -1.0197,1.453 -3.9807,5.35589 -6.5801,8.67308 -2.5994,3.31719 -4.625,6.28929 -4.5012,6.60467 0.1237,0.31538 14.6737,12.7006 32.3333,27.5228 l 32.1084,26.9493 2.7152,-3.0714 c 1.4933,-1.6892 5.517,-6.8232 8.9416,-11.40871 z"
       id="path90-1" />
    <path
       style="fill:#fecc00;fill-opacity:1;stroke-width:0.812871"
       d="m 1199.0731,875.61423 c 17.0157,-14.25189 31.0389,-26.16949 31.1627,-26.48352 0.1237,-0.31404 -1.9019,-3.28505 -4.5013,-6.60225 -2.5994,-3.31719 -5.5604,-7.22008 -6.5801,-8.67308 -1.0196,-1.45301 -2.1412,-2.64183 -2.4924,-2.64183 -0.6982,0 -66.4207,45.79938 -68.255,47.56418 -1.2718,1.2236 0.1279,3.4041 11.1145,17.3146 5.2399,6.6345 6.1429,7.4392 7.297,6.5029 0.7244,-0.5876 15.2391,-12.729 32.2546,-26.981 z"
       id="path88-5" />
    <path
       style="fill:#fecc00;fill-opacity:1;stroke-width:0.812871"
       d="m 1783.1257,909.30924 1.4896,-2.0923 -32.0019,-26.81911 c -17.6011,-14.7505 -32.2928,-26.91609 -32.6483,-27.03458 -0.3555,-0.11848 -4.0773,3.47869 -8.2708,7.99378 l -7.6243,8.2092 29.9981,30.05511 29.9983,30.05499 8.7848,-9.13739 c 4.8317,-5.0255 9.4552,-10.0789 10.2745,-11.2297 z"
       id="path86-1" />
    <path
       style="fill:#fecc00;fill-opacity:1;stroke-width:0.812871"
       d="m 1241.7406,861.35843 c -4.1942,-4.5158 -7.9166,-8.11366 -8.2721,-7.99518 -0.3555,0.11849 -15.0472,12.28408 -32.6482,27.03458 l -32.0019,26.81911 1.4474,2.0331 c 0.7961,1.11829 5.3901,6.17679 10.2089,11.2413 l 8.7613,9.208 30.0652,-30.06511 30.0651,-30.0652 z"
       id="path84-1" />
    <path
       style="fill:#fecc00;fill-opacity:1;stroke-width:0.812871"
       d="m 1746.3933,946.72744 c 3.9082,-3.5292 8.6544,-8.01791 10.5472,-9.97501 l 3.4415,-3.5583 -29.9891,-29.9809 -29.989,-29.9809 -8.2092,7.6244 c -4.5151,4.1935 -8.1148,7.8752 -7.9994,8.1817 0.5486,1.4568 53.6216,64.1057 54.3071,64.1057 0.4319,0 3.9828,-2.8876 7.8909,-6.41669 z"
       id="path78-5" />
    <path
       style="fill:#fecc00;fill-opacity:1;stroke-width:0.812871"
       d="m 1242.3725,921.36994 c 14.6608,-17.47581 26.7505,-32.025 26.8659,-32.3315 0.1154,-0.3065 -3.4843,-3.9882 -7.9994,-8.1817 l -8.2092,-7.6244 -29.9891,29.9809 -29.9891,29.9809 3.4415,3.5583 c 5.3563,5.538 17.565,16.3917 18.4381,16.3917 0.4319,0 12.7805,-14.2984 27.4413,-31.7742 z"
       id="path76-9" />
    <path
       style="fill:#fecc00;fill-opacity:1;stroke-width:0.812871"
       d="m 1719.7649,968.64354 c 4.6943,-3.5317 9.9421,-7.6417 11.6617,-9.1336 l 3.1265,-2.7124 -26.9541,-32.1061 c -14.8248,-17.6584 -27.4097,-32.067 -27.9665,-32.0192 -0.5567,0.048 -3.0682,1.6776 -5.581,3.6219 -4.3017,3.3284 -4.4771,3.5992 -3.0008,4.6332 0.8623,0.604 1.5678,1.3881 1.5678,1.7426 0,0.3544 -2.1966,1.5169 -4.8813,2.5833 -2.6848,1.0664 -4.7881,2.1541 -4.674,2.4171 0.705,1.6261 47.1927,67.4188 47.6289,67.4078 0.2957,-0.01 4.3785,-2.903 9.0728,-6.4346 z"
       id="path70-1" />
    <path
       style="fill:#fecc00;fill-opacity:1;stroke-width:0.812871"
       d="m 1266.7211,941.62013 c 12.8932,-18.4093 23.5354,-33.68669 23.6494,-33.94979 0.1141,-0.26301 -1.9892,-1.3507 -4.674,-2.4171 -2.6847,-1.06641 -4.8813,-2.2289 -4.8813,-2.58331 0,-0.3545 0.7055,-1.13859 1.5678,-1.7426 1.4763,-1.034 1.3009,-1.3048 -3.0008,-4.6332 -2.5128,-1.9443 -5.0211,-3.5741 -5.5741,-3.6219 -0.553,-0.048 -13.1425,14.35681 -27.9767,32.0104 l -26.9712,32.09731 3.1367,2.72119 c 4.2074,3.6501 20.0684,15.56 20.7446,15.577 0.2957,0.01 11.0865,-15.0487 23.9796,-33.458 z"
       id="path68-6" />
    <path
       style="fill:#fecc00;fill-opacity:1;stroke-width:0.812871"
       d="m 1696.7314,984.66624 9.8877,-6.41611 -24.4471,-34.91909 c -23.5984,-33.7071 -24.5059,-34.8782 -26.145,-33.738 -0.9339,0.6497 -5.2645,3.4371 -9.6235,6.1942 -4.3591,2.7571 -7.9255,5.1022 -7.9255,5.2112 0,0.1743 16.6213,29.0558 35.9378,62.4461 l 6.4781,11.1979 2.9749,-1.78 c 1.6362,-0.979 7.4244,-4.6673 12.8626,-8.1962 z"
       id="path66-0" />
    <path
       style="fill:#fecc00;fill-opacity:1;stroke-width:0.812871"
       d="m 1294.1464,957.28484 c 11.4451,-19.853 20.8093,-36.18371 20.8093,-36.2905 0,-0.1068 -3.5664,-2.45 -7.9254,-5.2071 -4.3591,-2.7571 -8.6896,-5.5445 -9.6236,-6.1942 -1.6391,-1.1402 -2.5466,0.031 -26.145,33.738 l -24.4471,34.9191 9.8877,6.4081 c 14.0062,9.0774 15.5025,9.9413 16.1015,9.2967 0.2932,-0.3156 9.8974,-16.8171 21.3426,-36.6701 z"
       id="path64-1" />
    <path
       style="fill:#fecc00;fill-opacity:1;stroke-width:0.812871"
       d="m 1662.1452,1004.9511 c 6.0873,-3.2339 11.8279,-6.42846 12.7568,-7.09907 1.6535,-1.1937 1.2433,-1.98979 -19.51,-37.8628 l -21.1991,-36.6435 -9.4409,4.85261 c -5.1924,2.6689 -9.7598,5.1384 -10.1496,5.4878 -0.8362,0.74929 34.4705,77.11206 35.6622,77.13156 0.4471,0.01 5.7934,-2.6327 11.8806,-5.8666 z"
       id="path62-6" />
    <path
       style="fill:#fecc00;fill-opacity:1;stroke-width:0.812871"
       d="m 1321.7611,972.56283 c 9.7785,-21.0329 17.4601,-38.5274 17.0702,-38.8767 -0.3898,-0.3494 -4.9591,-2.8199 -10.1539,-5.4901 l -9.4452,-4.8548 -21.1972,36.64571 c -20.7593,35.8889 -21.1622,36.671 -19.5057,37.86509 2.5785,1.8588 23.7145,12.98067 24.6398,12.96567 0.4471,-0.01 8.8135,-17.22197 18.592,-38.25487 z"
       id="path60-6" />
    <path
       style="fill:#fecc00;fill-opacity:1;stroke-width:0.812871"
       d="m 1626.8145,1021.1158 c 12.2276,-4.9376 18.1664,-7.637 18.1664,-8.2572 0,-0.5262 -31.3442,-68.00867 -34.2205,-73.67517 l -1.5162,-2.9869 -10.3789,4.3205 c -6.8402,2.8473 -10.2969,4.6971 -10.1385,5.42551 0.2835,1.30319 27.8478,77.23116 28.3618,78.12446 0.4818,0.8377 -0.077,1.0073 9.7259,-2.9512 z"
       id="path58-4" />
    <path
       style="fill:#fecc00;fill-opacity:1;stroke-width:0.812871"
       d="m 1350.4683,985.60724 c 7.7373,-21.2078 14.1602,-39.0648 14.2733,-39.6822 0.1355,-0.7398 -3.3336,-2.5899 -10.1732,-5.4255 l -10.3789,-4.303 -1.5162,2.9869 c -5.9709,11.76289 -34.2182,73.45926 -33.8819,74.00336 0.2312,0.3741 5.4621,2.7667 11.6243,5.3168 6.1621,2.5501 11.9355,4.9561 12.8296,5.3466 0.8942,0.3906 1.9699,0.6216 2.3905,0.5134 0.4206,-0.1082 7.0952,-17.5486 14.8325,-38.75636 z"
       id="path56-4" />
    <path
       style="fill:#fecc00;fill-opacity:1;stroke-width:0.812871"
       d="m 1600.2731,1030.6819 c 6.4826,-2.0507 11.9198,-3.8557 12.0826,-4.0113 0.2631,-0.2514 -28.1802,-79.22547 -28.7738,-79.89187 -0.2583,-0.28999 -20.8841,6.29421 -21.4462,6.846 -0.1864,0.183 4.5643,18.6505 10.5573,41.0389 l 10.8962,40.70627 2.4486,-0.4797 c 1.3468,-0.2639 7.7526,-2.1576 14.2353,-4.2083 z"
       id="path54-0" />
    <path
       style="fill:#fecc00;fill-opacity:1;stroke-width:0.812871"
       d="m 1380.7575,994.60073 c 5.9837,-22.3538 10.7269,-40.793 10.5405,-40.976 -0.5622,-0.55179 -21.188,-7.13599 -21.4463,-6.846 -0.5936,0.6664 -29.0368,79.64047 -28.7737,79.89187 0.1628,0.1556 5.7829,1.9945 12.4891,4.0867 6.7062,2.0921 12.5587,3.9286 13.0058,4.0811 3.1111,1.0612 3.1887,0.8409 14.1846,-40.23767 z"
       id="path52-0" />
    <path
       style="fill:#fecc00;fill-opacity:1;stroke-width:0.812871"
       d="m 1564.0304,1040.4533 c 7.1917,-1.6057 13.482,-3.1603 13.9783,-3.4547 0.6147,-0.3645 -2.5704,-13.4865 -9.9854,-41.13877 -5.9883,-22.332 -11.0151,-40.7308 -11.1707,-40.8863 -1.6571,-1.6572 -20.5298,13.1458 -20.244,15.8785 0.08,0.76701 2.915,17.12991 6.2997,36.36197 3.3847,19.2321 6.1539,35.2355 6.1539,35.5631 0,0.9421 1.1175,0.7686 14.9682,-2.3238 z"
       id="path50-2" />
    <path
       style="fill:#fecc00;fill-opacity:1;stroke-width:0.812871"
       d="m 1404.3714,1042.7771 c 0,-0.3276 2.7692,-16.331 6.1539,-35.5631 3.3847,-19.23206 6.2196,-35.59496 6.2998,-36.36196 0.2866,-2.7411 -18.5881,-17.5345 -20.2507,-15.872 -0.1592,0.1592 -5.1871,18.558 -11.1733,40.8864 -7.4106,27.64146 -10.5951,40.76396 -9.9789,41.12026 0.4979,0.2879 5.8433,1.6349 11.8789,2.9933 15.1782,3.4163 17.0703,3.7263 17.0703,2.7971 z"
       id="path48-0" />
    <path
       style="fill:#fecc00;fill-opacity:1;stroke-width:0.812871"
       d="m 1531.6863,1046.1672 c 5.8674,-0.7439 11.1269,-1.6361 11.6877,-1.9828 0.7897,-0.4881 -0.3946,-8.4905 -5.2494,-35.4712 -3.4481,-19.16246 -6.6321,-37.58436 -7.0757,-40.93736 -0.4436,-3.35311 -1.053,-6.33451 -1.3542,-6.62531 -0.3012,-0.2907 -5.4859,0.099 -11.5215,0.8666 l -10.9737,1.3953 0.2084,3.6042 c 0.1145,1.9824 1.6692,20.38 3.4547,40.88367 1.7854,20.5038 3.2463,38.0119 3.2463,38.9069 0,1.4444 0.3885,1.5759 3.4547,1.1699 1.9001,-0.2515 8.2553,-1.066 14.1227,-1.8099 z"
       id="path46-3" />
    <path
       style="fill:#fecc00;fill-opacity:1;stroke-width:0.812871"
       d="m 1439.3248,1046.6018 c 0,-1.3771 4.2596,-51.36887 5.1121,-59.99736 0.2494,-2.5233 0.1229,-2.6839 -1.8124,-2.3034 -1.1442,0.225 -3.5435,0.6639 -5.3319,0.9754 l -3.2514,0.5663 5.8228,-5.9852 5.8229,-5.9852 0.2737,-5.2357 0.2736,-5.2357 -10.9737,-1.3895 c -6.0356,-0.7642 -11.2202,-1.1516 -11.5215,-0.8609 -0.3012,0.2908 -0.9101,3.2722 -1.3531,6.6253 -0.443,3.353 -3.5768,21.4597 -6.9639,40.23696 -3.3872,18.7774 -6.1619,34.5909 -6.166,35.1412 -0.01,1.2993 1.4864,1.6408 15.0674,3.4391 15.0713,1.9956 15.0014,1.9956 15.0014,0.01 z"
       id="path44-3" />
    <path
       style="fill:#fecc00;fill-opacity:1;stroke-width:0.812871"
       d="m 1509.129,1048.6236 c 0.3577,-0.3577 -6.0623,-77.32026 -6.8643,-82.28886 l -0.4295,-2.6603 -5.4465,0.53009 c -4.5596,0.4438 -6.4064,1.1318 -11.3399,4.2247 l -5.8933,3.6947 v 38.99957 38.9998 l 14.8089,-0.572 c 8.1449,-0.3146 14.969,-0.7321 15.1646,-0.9277 z"
       id="path42-5" />
    <path
       style="fill:#fecc00;fill-opacity:1;stroke-width:0.812871"
       d="m 1842.7647,578.68453 31.552,-5.54822 -0.5111,-2.84962 c -1.2842,-7.16073 -5.5243,-25.66935 -6.0002,-26.19178 -0.4615,-0.50658 -80.9784,20.63228 -81.8296,21.48349 -0.1778,0.17785 0.3619,3.22936 1.1994,6.78111 0.8375,3.55176 1.9387,8.50313 2.447,11.00306 l 0.9243,4.54533 10.3332,-1.83757 c 5.6832,-1.01066 24.5315,-4.33426 41.885,-7.3858 z"
       id="path146-6" />
    <path
       style="fill:#fecc00;fill-opacity:1;stroke-width:0.812871"
       d="m 1165.3966,576.19999 c 1.2759,-5.69966 2.1889,-10.49396 2.0289,-10.65399 -0.8298,-0.82974 -81.347,-21.94519 -81.7971,-21.45109 -0.4759,0.52233 -4.7168,19.03378 -5.9994,26.1872 l -0.5101,2.84505 41.7118,7.36242 c 22.9416,4.04932 41.8321,7.0724 41.979,6.71793 0.1468,-0.35447 1.311,-5.30785 2.5869,-11.00752 z"
       id="path144-6" />
    <path
       style="fill:#fecc00;fill-opacity:1;stroke-width:0.812871"
       d="m 1878.9735,607.98604 c 0.3485,-0.26137 -3.0477,-27.58265 -3.6112,-29.05116 -0.2944,-0.76706 -10.6275,0.77866 -42.0243,6.28634 -22.8988,4.01693 -41.7144,7.34797 -41.8127,7.40229 -0.1787,0.0989 2.0751,18.05945 2.6569,21.17282 0.3064,1.63963 0.608,1.62563 42.4037,-1.96981 23.1524,-1.99164 42.2268,-3.71985 42.3876,-3.84048 z"
       id="path138-9" />
    <path
       style="fill:#fecc00;fill-opacity:1;stroke-width:0.812871"
       d="m 1474.2782,1012.1887 v -37.68687 l -6.7061,2.712 c -3.6884,1.4916 -9.1739,3.351 -12.1899,4.132 -5.0697,1.3129 -5.5136,1.6059 -5.88,3.8827 -0.4778,2.9681 -5.3093,59.41937 -5.3039,61.97107 0,1.9836 1.3117,2.1376 21.3416,2.5125 l 8.7383,0.1636 z"
       id="path40-7" />
    <path
       style="fill:#fecc00;fill-opacity:1;stroke-width:0.812871"
       d="m 1160.179,606.58805 c 0.561,-4.61926 1.2527,-9.64817 1.537,-11.17534 l 0.5169,-2.77666 -41.8868,-7.3558 c -31.5019,-5.53209 -41.9834,-7.10446 -42.2759,-6.342 -0.5629,1.46685 -3.9578,28.78648 -3.61,29.04996 0.4626,0.35039 83.9793,7.52619 84.3584,7.24814 0.1872,-0.1373 0.7994,-4.02903 1.3604,-8.6483 z"
       id="path136-6" />
    <path
       style="fill:#fecc00;fill-opacity:1;stroke-width:0.812871"
       d="m 1880.7133,637.06394 c 0,-3.50707 -0.2385,-10.27422 -0.53,-15.0381 l -0.5299,-8.66159 -4.1441,0.0603 c -2.2792,0.0332 -21.3363,1.58805 -42.349,3.45525 -38.1217,3.38753 -38.2047,3.39891 -38.1468,5.22333 0.032,1.00561 0.1234,6.21789 0.2032,11.58285 l 0.1452,9.75447 h 42.6757 42.6757 z"
       id="path134-8" />
    <path
       style="fill:#fecc00;fill-opacity:1;stroke-width:0.812871"
       d="m 1158.217,633.68601 c 0.08,-5.36493 0.1713,-10.57722 0.2032,-11.58284 0.058,-1.82442 -0.025,-1.83579 -38.1468,-5.22331 -21.0127,-1.86721 -40.0698,-3.42207 -42.349,-3.45527 l -4.144,-0.0603 -0.53,8.66159 c -0.2915,4.76387 -0.5299,11.53102 -0.5299,15.03809 v 6.37653 h 42.6756 42.6757 z"
       id="path132-7" />
    <path
       style="fill:#fecc00;fill-opacity:1;stroke-width:0.812871"
       d="m 1880.1833,669.7323 c 0.2915,-4.76387 0.53,-11.53102 0.53,-15.0381 v -6.37652 h -42.596 -42.5959 l -0.3192,11.17697 c -0.1755,6.14733 -0.2543,11.2864 -0.1752,11.42014 0.1634,0.27625 77.2092,7.24039 81.7016,7.38497 l 2.9248,0.0941 z"
       id="path130-7" />
    <path
       style="font-variation-settings:normal;opacity:1;vector-effect:none;fill:#704c34;fill-opacity:1;stroke:#000000;stroke-width:1.332;stroke-linecap:butt;stroke-linejoin:miter;stroke-miterlimit:4;stroke-dasharray:none;stroke-dashoffset:0;stroke-opacity:1;stop-color:#000000;stop-opacity:1"
       d="m 1513.592,883.14178 c 0,0 34.0501,34.84679 19.7312,87.70302 0,0 79.0192,-52.14912 51.442,-102.3537 0,0 45.6084,63.63961 87.6811,33.94112 0,0 -21.5667,-13.78858 -30.4056,-35.35534 -8.8387,-21.56675 10.6066,-44.90128 -6.3638,-67.88225 0,0 24.3011,2.94627 19.5751,77.13356 0,0 88.9649,-83.24891 13.7149,-133.49891 0,0 43.1426,3.94156 39.8213,71.72078 0,0 58.3101,-84.67597 4.2666,-127.62067 0,0 37.5268,15.03805 72.5286,-59.5617 0,0 -50.1165,16.46159 -67.6165,-14.53841 0,0 45.262,28.86426 73.631,-20.19287 0,0 -26.631,-3.30713 -38.881,-18.30713 -12.25,-15 -17.25,-48.25 -29,-61.25 0,0 22.032,7.54976 37.8834,-25.52472 0,0 -20.6334,0.52472 -35.8834,-22.97528 -15.25,-23.5 -55.1608,-77.48756 -72.9554,-77.74378 0,0 20.0384,-10.13717 22.1597,-38.77499 0,0 -38.6071,13.22427 -110.8571,-16.52573 -72.25,-29.75 -86.9155,8 -86.9155,8 h -0.9321 c 0,0 -14.6655,-37.74999 -86.9154,-8 -72.2499,29.74998 -110.8571,16.52573 -110.8571,16.52573 2.1213,28.63781 22.1597,38.77498 22.1597,38.77498 -17.7946,0.25622 -57.7053,54.24376 -72.9553,77.74376 -15.25,23.49999 -35.8833,22.97527 -35.8833,22.97527 15.8513,33.07447 37.8833,25.52472 37.8833,25.52472 -11.75,12.99999 -16.75,46.24998 -29,61.24998 -12.2499,15 -38.8809,18.30713 -38.8809,18.30713 28.369,49.05711 73.6309,20.19286 73.6309,20.19286 -17.5,30.99999 -67.6164,14.53841 -67.6164,14.53841 35.0017,74.59974 72.5285,59.56168 72.5285,59.56168 -54.0434,42.94469 4.2666,127.62064 4.2666,127.62064 -3.3213,-67.7792 39.8212,-71.72076 39.8212,-71.72076 -75.2499,50.24999 13.7149,133.49887 13.7149,133.49887 -4.726,-74.18727 19.5752,-77.13354 19.5752,-77.13354 -16.9705,22.98096 2.4749,46.31548 -6.3639,67.88224 -8.8389,21.56675 -30.4056,35.35533 -30.4056,35.35533 42.0728,29.69848 87.6811,-33.94111 87.6811,-33.94111 -27.5771,50.20456 51.442,102.35367 51.442,102.35367 -14.3189,-52.85622 19.7312,-87.703 19.7312,-87.703 0,0 39.0426,64.50941 -5.732,102.7011 0,0 100.2053,-2.22268 79.5508,-102.70096 z"
       id="path1551-5"
       sodipodi:nodetypes="ccccsccccccccsccsccsccsccsccsccccccccscccc" />
    <path
       style="fill:#fffadb;fill-opacity:1;stroke:#000000;stroke-width:1.332;stroke-opacity:1;stroke-miterlimit:4;stroke-dasharray:none"
       d="m 1410.7631,747.28467 c 7.2875,-13.1978 16.5559,-24.44077 24.5477,-29.77752 l 4.8245,-3.22166 -2.8032,-0.92515 c -3.4064,-1.1242 -7.206,-5.28011 -8.6806,-9.49453 -0.6,-1.71489 -1.0649,-5.89758 -1.033,-9.29487 0.092,-9.85593 5.1785,-18.9402 11.9405,-21.32688 1.1764,-0.41521 1.0648,-0.003 -0.5853,2.15995 -3.303,4.33051 -5.4069,9.98227 -5.8886,15.81841 -0.6042,7.32138 0.7395,11.93868 4.5965,15.79569 2.8363,2.83638 3.4383,3.07773 7.6765,3.07773 2.9381,0 5.7086,0.5662 7.6722,1.56792 7.3474,3.74836 14.0443,5.30731 22.8737,5.32468 9.0522,0.0178 13.69,-0.92891 21.1346,-4.31432 2.9976,-1.36314 6.1119,-2.07894 9.451,-2.17228 6.5639,-0.18349 9.886,-2.11543 12.4288,-7.22798 3.5436,-7.12481 2.2606,-19.41108 -2.807,-26.87852 -2.314,-3.40989 -1.4889,-3.70952 2.0394,-0.74061 4.3856,3.69017 8.1512,13.35522 8.1512,20.92122 0,4.32845 -2.2883,10.74834 -4.7828,13.41881 -1.373,1.46976 -3.8515,2.89854 -6.0463,3.48558 l -3.7196,0.99484 4.2261,2.83206 c 6.0549,4.05768 16.4084,14.89864 22.2845,23.33399 2.779,3.98919 5.5976,7.98467 6.2635,8.87883 1.0975,1.47339 1.2153,0.74974 1.2578,-7.72227 0.08,-15.93627 4.157,-30.60291 11.7104,-42.12606 6.5353,-9.97008 13.1291,-15.66991 26.5201,-22.92457 18.326,-9.92834 25.5227,-16.48583 37.3686,-34.0496 4.0945,-6.07077 8.2791,-17.19744 10.3124,-27.4199 1.8919,-9.51111 1.8878,-32.3733 -0.01,-47.02773 -1.9906,-15.38477 -6.9745,-46.04956 -7.812,-48.06545 -0.6149,-1.47986 -3.4775,-2.40781 -19.6737,-6.37756 -49.0948,-12.03327 -69.6383,-20.23507 -89.7219,-35.82082 -18.5907,-14.42701 -30.9205,-34.69333 -36.5704,-60.11006 l -1.4439,-6.49582 -1.8628,7.01712 c -5.5019,20.72572 -14.3853,35.85058 -29.8777,50.86937 -16.6785,16.16863 -36.3289,27.22183 -65.4462,36.81294 -11.0763,3.64852 -31.8816,9.1027 -43.9001,11.50854 -3.8237,0.76542 -5.3655,1.4684 -5.8838,2.68267 -0.9327,2.18479 -6.8857,36.56198 -8.3788,48.38551 -3.4558,27.36538 -2.0239,45.92302 4.8484,62.83587 2.5228,6.20853 11.8875,18.71858 19.897,26.57989 3.4164,3.35309 11.7019,10.36879 18.4122,15.59043 13.5999,10.58261 20.9793,18.06719 27.5506,27.94322 9.7388,14.63654 14.7236,29.363 15.1903,44.87633 0.1105,3.67362 0.2667,6.68304 0.3472,6.68759 0.081,0.005 1.6106,-2.64371 3.4004,-5.88503 z"
       id="path114-5" />
    <path
       style="fill:#fecc00;fill-opacity:1;stroke-width:0.812871"
       d="m 1116.9858,674.76702 c 22.7122,-1.99477 41.3556,-3.73227 41.4298,-3.86113 0.074,-0.12885 -0.01,-5.26391 -0.1841,-11.41124 l -0.3192,-11.17697 h -42.5959 -42.5959 v 6.37652 c 0,11.91866 1.0017,23.6997 2.0151,23.6997 0.5254,0 19.538,-1.63209 42.2502,-3.62688 z"
       id="path128-6" />
    <path
       style="fill:#252322;fill-opacity:1;stroke-width:0.812871;stroke:#000000;stroke-opacity:1"
       d="m 1452.5804,688.10095 c 2.0714,-6.68364 4.3218,-23.13996 5.0514,-36.93822 0.492,-9.30476 -0.6303,-35.27145 -1.8971,-43.89501 l -0.5971,-4.06434 -1.0537,4.6671 c -1.9152,8.48242 -7.8014,15.0025 -16.3848,18.14931 -4.9685,1.82153 -19.5667,2.45211 -27.4239,1.1846 -7.12,-1.14856 -11.771,-2.6755 -5.4974,-1.80476 7.9273,1.10026 24.103,0.63162 28.8729,-0.8365 11.9341,-3.6732 17.9412,-11.4996 19.1969,-25.01102 0.5638,-6.06664 -0.1081,-7.12006 -2.1977,-3.44519 -0.7063,1.24218 -3.424,3.37452 -6.0965,4.78354 -15.7333,8.29474 -45.6138,7.33399 -65.7874,-2.11525 -6.5482,-3.06714 -12.3716,-7.10704 -8.9416,-6.20305 12.0274,3.16986 30.765,5.3493 45.9222,5.34142 22.013,-0.0115 32.8683,-3.26464 35.036,-10.49978 0.8676,-2.8955 0.7231,-3.50476 -2.1088,-8.89386 -9.8666,-18.77608 -34.0627,-28.45772 -63.4049,-25.37025 -10.0693,1.05953 -22.4167,3.8072 -30.8889,6.87376 -4.916,1.77934 -5.4137,1.84514 -3.658,0.48365 3.6057,-2.79606 25.5163,-13.4997 32.1708,-15.71586 31.9324,-10.63446 55.2145,-2.59414 67.8512,23.43195 8.1621,16.81052 11.4954,38.37619 11.5001,74.40441 0,24.10566 -2.6277,38.70714 -8.026,44.5446 -1.1166,1.2075 -1.8536,1.62543 -1.6377,0.92875 z"
       id="path116-0" />
    <path
       style="fill:#252322;fill-opacity:1;stroke-width:0.812871;stroke:#000000;stroke-opacity:1"
       d="m 1498.4195,686.7011 c -2.1602,-2.38694 -4.4192,-8.27356 -5.9955,-15.62305 -2.0343,-9.48498 -2.0466,-48.44722 -0.021,-65.66167 2.9814,-25.33389 9.3303,-41.68006 20.4345,-52.61099 9.5152,-9.36678 19.9202,-13.07875 34.5988,-12.34314 10.0093,0.50161 18.1915,2.49525 30.1084,7.33612 7.4951,3.04465 27.1771,13.42848 26.5817,14.02392 -0.1162,0.1162 -3.7661,-1.02726 -8.1108,-2.54102 -15.6976,-5.46922 -34.5947,-7.82029 -48.931,-6.08771 -9.7456,1.17777 -16.8449,3.2615 -24.4408,7.17359 -10.2776,5.29325 -20.7282,18.02323 -20.7282,25.24923 0,4.03732 4.0123,7.63918 11.0121,9.8856 12.8243,4.11564 51.486,2.46926 70.6813,-3.00991 2.9285,-0.83593 -2.1158,2.66793 -8.3327,5.78795 -24.9586,12.52586 -67.8351,10.20592 -74.2644,-4.01823 -0.4834,-1.0695 -0.6429,0.87732 -0.466,5.69009 0.2182,5.93863 0.6666,8.09067 2.3819,11.43178 5.7004,11.10364 16.8106,15.71592 35.4207,14.70447 5.2218,-0.28381 10.5916,-0.69129 11.9328,-0.90553 1.3412,-0.21423 0.4268,0.17718 -2.0322,0.8698 -6.2366,1.75671 -22.6164,2.41436 -28.3595,1.13862 -5.038,-1.1191 -9.6922,-3.26203 -13.6818,-6.29949 -2.8377,-2.16048 -7.5436,-10.71044 -7.5436,-13.70567 0,-1.01991 -0.3222,-2.05351 -0.7161,-2.2969 -1.033,-0.63845 -1.6201,7.05758 -2.2276,29.20349 -0.5721,20.85197 0.172,32.39884 2.967,46.0409 0.8487,4.14276 1.4323,7.64315 1.2968,7.77863 -0.1354,0.13548 -0.8397,-0.40942 -1.565,-1.21088 z"
       id="path118-7" />
    <path
       style="font-variation-settings:normal;opacity:1;vector-effect:none;fill:#252322;fill-opacity:1;stroke:#000000;stroke-width:1px;stroke-linecap:butt;stroke-linejoin:miter;stroke-miterlimit:4;stroke-dasharray:none;stroke-dashoffset:0;stroke-opacity:1;stop-color:#000000;stop-opacity:1"
       d="m 1513.2516,714.2857 c 15.0688,-1.99892 14.8687,-23.18857 9.8062,-32.31357 -5.0625,-9.125 -10,-8.8125 -10,-8.8125 0,0 8.2027,12.10012 7.2304,21.55767 -0.9722,9.45755 -5.3916,15.02603 -11.2253,15.11442 -5.8336,0.0884 -9.1924,1.14904 -12.8163,3.62392 -3.6239,2.47487 -19.564,3.18187 -19.564,3.18187 0,0 -15.9402,-0.70722 -19.5641,-3.18209 -3.6239,-2.47488 -6.9827,-3.53552 -12.8163,-3.62392 -5.8336,-0.0884 -10.2531,-5.65686 -11.2253,-15.11441 -0.9723,-9.45755 7.2305,-21.55767 7.2305,-21.55767 0,0 -4.9375,-0.3125 -10,8.8125 -5.0625,9.125 -5.2626,30.31464 9.8062,32.31357 15.0688,1.99893 25.3295,6.59455 36.569,6.68305 11.2394,-0.0883 21.5002,-4.68391 36.569,-6.68284 z"
       id="path2290-6"
       sodipodi:nodetypes="sscssscssscsscs" />
    <path
       style="fill:#fffadb;fill-opacity:1;stroke:#000000;stroke-width:1.332;stroke-opacity:1;stroke-miterlimit:4;stroke-dasharray:none"
       d="m 1440.6626,811.70965 c 14.3445,-12.5946 52.5766,-12.99658 70.9224,-0.74569 l 4.9425,3.30048 4.2776,-1.26267 c 12.6329,-3.72904 21.1791,-17.09181 15.906,-24.87035 -3.6659,-5.40797 -16.7138,-11.50571 -32.7264,-15.29427 -8.044,-1.90321 -10.5855,-2.12342 -24.4228,-2.1162 -12.9835,0.007 -16.799,0.3015 -23.9445,1.8495 -15.0863,3.26831 -35.9742,12.21229 -36.914,15.80623 -1.1053,4.22677 2.2043,13.39975 7.0608,19.57003 5.1439,6.53535 10.2671,7.82932 14.8984,3.76294 z"
       id="path106-9" />
  </g>
  <g
     inkscape:groupmode="layer"
     id="layer2"
     inkscape:label="vrstva2"
     transform="translate(-988.92432,-76.846425)">
    <path
       style="fill:#0000ff;fill-rule:evenodd"
       d="m -3678.0831,74.388194 h 1843.1742 V 1735.7245 h -1843.1742 z"
       id="rect28" />
  </g>
</svg>
